<svg width="58" height="51" viewBox="0 0 58 51" fill="none" xmlns="http://www.w3.org/2000/svg">
<path d="M49.5096 7.50068C38.2779 -2.37639 20.1584 -2.4798 9.04117 7.27336C0.147557 15.0757 -1.56982 26.8202 3.85007 36.262C4.68025 37.3194 5.67644 37.101 6.2081 36.6346C6.6881 36.2135 8.25489 34.8058 9.92813 33.3225C3.05197 29.4148 5.45061 25.2129 5.45061 25.2129C6.85203 22.3581 6.13758 20.6431 6.13758 20.6431C5.54149 17.9242 7.50034 19.6919 7.50034 19.6919C9.40112 21.6123 8.54391 24.2535 8.54391 24.2535C7.28069 28.5485 11.1145 30.357 12.7894 30.9265C14.2727 29.9459 15.6884 29.6299 16.7724 29.7007C12.7637 25.2813 9.74064 19.5908 17.4536 12.8243C19.6512 10.8963 22.2414 10.0197 24.9522 9.92716C25.2484 9.29637 26.5992 6.88832 30.4762 5.42709C30.4762 5.42709 32.7252 6.45446 34.0077 12.1573C36.0762 13.1927 38.0398 14.5266 39.776 16.04C41.4969 17.5667 43.0146 19.2943 44.194 21.115C50.6805 22.2441 51.8451 24.2186 51.8451 24.2186C50.1796 27.6246 47.4361 28.8079 46.7175 29.0673C46.612 31.4508 45.6055 33.7201 43.4079 35.6481C35.6766 42.4308 29.2161 39.7399 24.1886 36.1943C24.2935 37.3838 23.7186 39.0301 21.8406 40.6777C19.1476 43.0403 16.9563 44.9212 16.293 45.5031C15.7574 45.9731 15.4958 46.8457 16.7245 47.5789C27.4663 52.3442 40.8294 50.8455 49.72 43.0458C60.8373 33.2926 60.7424 17.3786 49.5096 7.50068Z" fill="white"/>
</svg>
