<svg width="1381" height="115" viewBox="0 0 1381 115" fill="none" xmlns="http://www.w3.org/2000/svg">
<path fill-rule="evenodd" clip-rule="evenodd" d="M1381 31.9925L1323.46 25.0752C1265.92 18.1579 1150.83 4.32331 1035.75 0.864662C920.667 -2.59398 805.583 4.32331 690.5 21.6165C575.417 38.9098 460.333 66.5789 345.25 66.5789C230.167 66.5789 115.083 38.9098 57.5416 25.0752L-4.19617e-05 11.2406V115H57.5416C115.083 115 230.167 115 345.25 115C460.333 115 575.417 115 690.5 115C805.583 115 920.667 115 1035.75 115C1150.83 115 1265.92 115 1323.46 115H1381V31.9925Z" fill="#F6F8FA"/>
</svg>
